<?xml version="1.0" encoding="UTF-8" standalone="no"?>
<!-- Uploaded to: SVG Repo, www.svgrepo.com, Generator: SVG Repo Mixer Tools -->

<svg
   width="24"
   height="24"
   viewBox="0 0 24 24"
   fill="none"
   version="1.1"
   id="svg1"
   sodipodi:docname="brand-linux.svg"
   inkscape:version="1.4 (86a8ad7, 2024-10-11)"
   xmlns:inkscape="http://www.inkscape.org/namespaces/inkscape"
   xmlns:sodipodi="http://sodipodi.sourceforge.net/DTD/sodipodi-0.dtd"
   xmlns="http://www.w3.org/2000/svg"
   xmlns:svg="http://www.w3.org/2000/svg">
  <defs
     id="defs1" />
  <sodipodi:namedview
     id="namedview1"
     pagecolor="#ffffff"
     bordercolor="#000000"
     borderopacity="0.25"
     inkscape:showpageshadow="2"
     inkscape:pageopacity="0.0"
     inkscape:pagecheckerboard="0"
     inkscape:deskcolor="#d1d1d1"
     inkscape:zoom="32.28"
     inkscape:cx="10.811648"
     inkscape:cy="12.22119"
     inkscape:window-width="1920"
     inkscape:window-height="1009"
     inkscape:window-x="-8"
     inkscape:window-y="-8"
     inkscape:window-maximized="1"
     inkscape:current-layer="svg1" />
  <path
     fill="#000000"
     d="m 12.358208,3.4688148 c -0.109689,0 -0.224252,0.00609 -0.341253,0.014625 C 9.0127108,3.7198794 9.8097803,6.9008435 9.7622487,7.9611649 9.709842,8.7375152 9.550184,9.3505516 9.016367,10.10862 8.3874868,10.85572 7.5051044,12.063511 7.0858509,13.322491 6.8884117,13.913589 6.7933484,14.519313 6.8823179,15.09213 a 0.30103377,0.30103377 0 0 0 -0.078001,0.09628 C 6.6190653,15.378536 6.4837829,15.614976 6.3326567,15.785602 6.1912805,15.925759 5.9877475,15.97451 5.7659332,16.068354 5.5429,16.165854 5.2979292,16.2597 5.151678,16.552202 a 0.95063296,0.95063296 0 0 0 -0.093844,0.427785 c 0,0.141376 0.0195,0.28519 0.039,0.381472 0.041438,0.283971 0.082876,0.517973 0.028031,0.689818 -0.1767202,0.482629 -0.1986579,0.814132 -0.075563,1.054228 0.1243135,0.237658 0.3814719,0.335159 0.6690993,0.427785 0.5752548,0.142595 1.3576989,0.09628 1.971954,0.426566 0.6581305,0.331503 1.3260111,0.475316 1.8598281,0.33394 0.3741598,-0.08166 0.6898176,-0.329065 0.8592256,-0.672756 0.416816,-0.0012 0.873851,-0.191345 1.606326,-0.236439 0.497254,-0.04144 1.118822,0.188908 1.831797,0.141376 0.01828,0.09506 0.04509,0.141376 0.08166,0.23644 l 0.0012,0.0024 c 0.279096,0.553317 0.792195,0.804382 1.340637,0.761725 0.548442,-0.04266 1.131009,-0.381472 1.603888,-0.928695 0.448504,-0.543567 1.196823,-0.770257 1.69042,-1.068853 0.247409,-0.141376 0.447285,-0.332721 0.461911,-0.605724 0.01584,-0.285189 -0.142595,-0.576473 -0.508223,-0.978664 v -0.06825 l -0.0024,-0.0024 c -0.120657,-0.142595 -0.17672,-0.380253 -0.240096,-0.658131 -0.06094,-0.28519 -0.129188,-0.559411 -0.349784,-0.743443 h -0.0012 c -0.04266,-0.039 -0.08775,-0.04875 -0.134063,-0.0975 a 0.25350212,0.25350212 0 0 0 -0.134064,-0.04509 c 0.30469,-0.907977 0.18647,-1.812297 -0.124313,-2.62521 C 17.155248,11.70154 16.492242,10.827688 15.986457,10.228058 15.420952,9.5126467 14.866416,8.8362347 14.877385,7.8331951 14.896885,6.303651 15.045574,3.4724711 12.358208,3.4688148 Z m 0.376597,2.4204578 h 0.0085 c 0.152345,0 0.281534,0.043875 0.414378,0.1413761 a 1.0846966,1.0846966 0 0 1 0.312003,0.3778157 c 0.07556,0.1852516 0.113345,0.3266277 0.11822,0.5155356 0,-0.014625 0.0049,-0.028031 0.0049,-0.042657 v 0.074344 a 0.06093801,0.06093801 0 0 1 -0.0037,-0.014625 l -0.0024,-0.017063 c -0.0012,0.1730639 -0.03656,0.3436904 -0.106032,0.5021292 a 0.67763068,0.67763068 0 0 1 -0.152345,0.2376582 0.50578549,0.50578549 0 0 0 -0.06216,-0.02925 c -0.07313,-0.032907 -0.140157,-0.046313 -0.202314,-0.095063 a 0.93235156,0.93235156 0 0 0 -0.156001,-0.046313 c 0.03656,-0.042657 0.103594,-0.095063 0.130407,-0.1413762 a 0.84094454,0.84094454 0 0 0 0.06216,-0.2851899 v -0.014625 a 0.86044471,0.86044471 0 0 0 -0.04266,-0.2839711 c -0.03291,-0.096282 -0.07313,-0.142595 -0.130407,-0.2376583 -0.06094,-0.046313 -0.119439,-0.093845 -0.190127,-0.093845 h -0.01219 c -0.06581,0 -0.124314,0.021938 -0.185252,0.093845 a 0.56916102,0.56916102 0 0 0 -0.146251,0.2376583 0.83850702,0.83850702 0 0 0 -0.06338,0.2851899 v 0.012188 c 0,0.064594 0.0049,0.1279698 0.01341,0.1901266 -0.136502,-0.047532 -0.310784,-0.095063 -0.431442,-0.142595 a 1.1626972,1.1626972 0 0 1 -0.01219,-0.1425949 v -0.015844 a 1.2601981,1.2601981 0 0 1 0.106032,-0.5460046 0.76781893,0.76781893 0 0 1 0.305909,-0.3778157 0.70078712,0.70078712 0 0 1 0.42291,-0.1425949 z m -2.106018,0.042657 h 0.02438 c 0.102376,0 0.192564,0.034125 0.28519,0.095063 a 0.98232073,0.98232073 0 0 1 0.243752,0.3315027 c 0.06459,0.1413762 0.09994,0.2839712 0.109689,0.4740978 v 0.00244 a 1.0432587,1.0432587 0 0 1 -0.0024,0.1889078 v 0.057282 l -0.0585,0.017063 c -0.10847,0.039 -0.195002,0.096282 -0.280315,0.1425949 a 0.77147521,0.77147521 0 0 0 0.0024,-0.1901266 v -0.010972 c -0.0085,-0.095063 -0.02803,-0.1425949 -0.05728,-0.2364395 A 0.43631615,0.43631615 0 0 0 10.777476,6.6132161 0.17672023,0.17672023 0 0 0 10.647068,6.568122 h -0.01463 c -0.05119,0.00366 -0.09263,0.028031 -0.132845,0.093845 a 0.39244079,0.39244079 0 0 0 -0.08531,0.1913454 0.67031812,0.67031812 0 0 0 -0.01584,0.2352207 v 0.00975 c 0.0085,0.097501 0.02559,0.1425949 0.05728,0.2376582 a 0.44240996,0.44240996 0 0 0 0.117001,0.1913454 c 0.0073,0.00609 0.01463,0.012188 0.02438,0.017063 -0.04875,0.040219 -0.08288,0.04875 -0.124313,0.096282 a 0.21572056,0.21572056 0 0 1 -0.09384,0.04875 A 1.8647031,1.8647031 0 0 1 10.183949,7.402973 1.2601981,1.2601981 0 0 1 10.074261,6.9288753 c -0.01219,-0.1608763 0.0061,-0.3217527 0.05606,-0.4753165 a 1.016446,1.016446 0 0 1 0.201095,-0.3802531 c 0.09141,-0.093845 0.185252,-0.1413762 0.297378,-0.1413762 z m 0.973789,1.2126664 c 0.23644,0 0.52163,0.046313 0.86532,0.2839711 0.207189,0.1413762 0.370503,0.1913454 0.7471,0.3327215 h 0.0024 c 0.181595,0.096282 0.287627,0.1889079 0.340034,0.2827524 V 7.951415 A 0.40584715,0.40584715 0 0 1 13.5684,8.2853553 C 13.48069,8.504732 13.20159,8.7423902 12.812805,8.8837664 v 0.00122 c -0.190126,0.0975 -0.355878,0.237657 -0.550879,0.3315015 -0.196221,0.095063 -0.418035,0.2071893 -0.719069,0.1889079 A 0.80925678,0.80925678 0 0 1 11.223542,9.3578641 2.531365,2.531365 0 0 1 10.994415,9.2177067 c -0.13772,-0.096282 -0.257158,-0.2364395 -0.435097,-0.330284 v -0.00366 h -0.0037 C 10.27169,8.7082649 10.118126,8.5193571 10.068157,8.3791997 c -0.04875,-0.1913454 -0.0037,-0.3351591 0.13772,-0.4265661 0.158439,-0.097501 0.269346,-0.1937829 0.343691,-0.2400958 0.07313,-0.052407 0.101157,-0.071907 0.124313,-0.092626 h 0.0012 v -0.00244 c 0.120657,-0.1425949 0.310784,-0.3339403 0.597192,-0.426566 0.0975,-0.025594 0.208408,-0.046313 0.331503,-0.046313 z m 1.990236,1.5234502 c 0.255939,1.0066957 0.850694,2.4692078 1.233385,3.1797448 0.203533,0.379034 0.60938,1.178541 0.783663,2.149893 0.110907,-0.0037 0.235221,0.01219 0.365628,0.04509 0.458254,-1.188291 -0.388785,-2.464333 -0.775131,-2.820211 -0.156002,-0.141376 -0.164533,-0.237658 -0.08653,-0.237658 0.419253,0.380253 0.970133,1.117603 1.170009,1.959766 0.09141,0.380253 0.113345,0.784882 0.01462,1.187072 0.04753,0.02072 0.09628,0.04266 0.146252,0.04875 0.732475,0.379034 1.004258,0.666662 0.873851,1.092009 v -0.03047 c -0.04266,-0.0024 -0.08531,0 -0.12797,0 h -0.01219 c 0.10847,-0.331503 -0.129188,-0.586224 -0.755631,-0.870195 -0.650818,-0.283971 -1.17001,-0.238877 -1.258979,0.330284 -0.0061,0.03047 -0.0098,0.04753 -0.01219,0.09628 -0.04875,0.01584 -0.09994,0.03656 -0.149907,0.04509 -0.30469,0.191346 -0.470442,0.475317 -0.563068,0.844601 -0.09262,0.377816 -0.121876,0.821445 -0.146251,1.328449 v 0.0024 c -0.01341,0.237659 -0.120657,0.595974 -0.226689,0.959165 -1.066415,0.762944 -2.544772,1.093228 -3.802532,0.237658 A 1.880547,1.880547 0 0 0 9.9779622,17.837948 1.0310711,1.0310711 0 0 0 9.7829606,17.60029 1.1736661,1.1736661 0 0 0 10.112026,17.55154 0.43753492,0.43753492 0 0 0 10.336278,17.3151 c 0.07678,-0.190127 0,-0.496035 -0.244971,-0.826319 C 9.8463431,16.156108 9.4295267,15.781949 8.8201466,15.406571 8.3716429,15.122599 8.1193595,14.788659 8.0023585,14.4145 7.8853576,14.034247 7.9012014,13.643025 7.9913897,13.24449 c 0.1742827,-0.760506 0.6215677,-1.499075 0.9055388,-1.963423 0.076782,-0.04631 0.026813,0.09506 -0.2900649,0.692256 -0.2803148,0.533817 -0.8104755,1.774515 -0.085313,2.739773 0.026813,-0.704443 0.182814,-1.396699 0.4594726,-2.04508 0.4009721,-0.907976 1.2382608,-2.491145 1.3040738,-3.7452493 0.03534,0.025594 0.154782,0.097501 0.207189,0.1438137 0.153564,0.095063 0.268127,0.2364395 0.418035,0.330284 a 0.84581959,0.84581959 0 0 0 0.622786,0.2388768 l 0.07922,0.00366 c 0.292503,0 0.517974,-0.095063 0.7081,-0.1901264 0.207189,-0.095063 0.370503,-0.2376582 0.526505,-0.2839711 h 0.0037 c 0.331503,-0.097501 0.593536,-0.2864086 0.742225,-0.4984729 z m 1.553919,6.3680208 c 0.02559,0.426567 0.243752,0.88482 0.626443,0.978665 0.418035,0.09506 1.020102,-0.23644 1.273604,-0.543567 l 0.149908,-0.0073 c 0.224252,-0.0049 0.410722,0.0073 0.602067,0.190127 l 0.0024,0.0024 c 0.14747,0.141377 0.216939,0.377816 0.277877,0.622787 0.06094,0.283971 0.109689,0.554536 0.291284,0.758069 0.344909,0.374159 0.458254,0.643505 0.450941,0.810475 l 0.0037,-0.0049 v 0.01219 l -0.0024,-0.0085 c -0.01097,0.18647 -0.131626,0.281533 -0.353441,0.422909 -0.448503,0.28519 -1.243135,0.507005 -1.747702,1.116385 -0.438753,0.524067 -0.975008,0.810475 -1.447887,0.847038 -0.47166,0.03656 -0.878726,-0.142595 -1.118822,-0.63863 l -0.0037,-0.0024 c -0.148689,-0.283971 -0.08531,-0.7276 0.04022,-1.200479 0.125532,-0.475316 0.30469,-0.955508 0.329065,-1.349167 0.02681,-0.508223 0.05363,-0.949414 0.138939,-1.289449 0.08531,-0.330284 0.219377,-0.566723 0.455816,-0.699568 l 0.03169,-0.01584 z m -7.6879395,0.03413 h 0.00731 a 0.64594291,0.64594291 0 0 1 0.1109071,0.01097 c 0.2681273,0.039 0.5021292,0.236439 0.7275999,0.533817 l 0.6459429,1.182197 0.00366,0.0037 c 0.1718452,0.377816 0.5362545,0.755632 0.8446012,1.163916 0.3083464,0.424129 0.5484414,0.804382 0.5179724,1.115166 v 0.0049 c -0.04022,0.528942 -0.3412522,0.816569 -0.7995064,0.920164 -0.4582539,0.09628 -1.0810403,0 -1.702608,-0.329065 -0.6886006,-0.382765 -1.50517,-0.334015 -2.0316744,-0.429078 -0.2620334,-0.04753 -0.4326599,-0.142595 -0.513098,-0.283971 -0.078001,-0.142595 -0.080438,-0.429004 0.086532,-0.87507 v -0.0024 l 0.00244,-0.0024 c 0.082876,-0.237658 0.020719,-0.535036 -0.0195,-0.794632 -0.039,-0.28519 -0.059719,-0.504566 0.030469,-0.669099 0.1133447,-0.236439 0.2803148,-0.283971 0.4899416,-0.377816 0.2096268,-0.0975 0.4558163,-0.143813 0.6508179,-0.335159 h 0.00122 c 0.1828101,-0.19142 0.3168738,-0.42786 0.4753126,-0.597267 0.1340636,-0.142595 0.2705648,-0.238877 0.4716602,-0.238877 z M 12.548334,8.6192954 c -0.309565,0.142595 -0.671537,0.3802532 -1.057884,0.3802532 -0.385128,0 -0.689818,-0.1889078 -0.910413,-0.3315028 C 10.470348,8.5729825 10.381379,8.4779192 10.315566,8.4303876 10.198565,8.3353243 10.21319,8.1939481 10.26194,8.1939481 c 0.078,0.012188 0.09263,0.095063 0.142595,0.142595 0.06825,0.046313 0.152345,0.1413761 0.25594,0.2364394 0.207189,0.1413762 0.482629,0.3315028 0.828757,0.3315028 0.344909,0 0.749537,-0.1901266 0.994508,-0.3315028 0.138939,-0.095063 0.316878,-0.2364394 0.460691,-0.3315027 0.109689,-0.097501 0.106032,-0.1901266 0.198658,-0.1901266 0.09019,0.012188 0.02437,0.095063 -0.104813,0.2364395 -0.158439,0.1194385 -0.321753,0.2303456 -0.49116,0.3327215 z M 11.779297,7.4943798 v -0.015844 c -0.0049,-0.014625 0.0085,-0.02925 0.02072,-0.036563 0.05241,-0.02925 0.127969,-0.018281 0.184032,0.00366 0.04509,0 0.114564,0.04875 0.107251,0.096282 -0.0049,0.035344 -0.06094,0.046313 -0.09628,0.046313 -0.039,0 -0.06581,-0.030469 -0.09994,-0.04875 -0.03656,-0.012188 -0.103595,-0.00488 -0.115782,-0.045094 z m -0.392441,0 c -0.01341,0.041438 -0.08044,0.034125 -0.11822,0.046313 -0.03291,0.018281 -0.06094,0.04875 -0.09872,0.04875 -0.03656,0 -0.09262,-0.014625 -0.0975,-0.04875 -0.0061,-0.046313 0.06338,-0.093845 0.107251,-0.093845 0.05728,-0.021938 0.130407,-0.034125 0.184032,-0.00366 0.01341,0.00609 0.02559,0.020719 0.02194,0.035344 v 0.014625 h 0.0012 z"
     id="path1"
     style="stroke-width:1.21876" />
</svg>
